<svg width="101" height="75" viewBox="0 0 101 75" fill="none" xmlns="http://www.w3.org/2000/svg">
<path d="M10.3592 58.1329L0.553223 46.9559C1.46471 46.9417 2.37265 46.8389 3.26422 46.6489C4.1443 46.4616 5.00403 46.1889 5.83122 45.8349C6.65884 45.4809 7.4502 45.0475 8.19422 44.5409C8.94934 44.0259 9.65264 43.4388 10.2942 42.7879C10.7846 42.2926 11.2382 41.7622 11.6512 41.2009C12.0599 40.645 12.4276 40.0602 12.7512 39.4509C13.0733 38.8443 13.3504 38.215 13.5802 37.5679C13.8111 36.918 13.9945 36.2522 14.1292 35.5759C14.5037 28.6658 16.8253 22.0027 20.826 16.3562C24.8267 10.7097 30.3432 6.31017 36.7382 3.66586C43.0331 1.08236 49.9289 0.326334 56.6341 1.48457C63.3392 2.6428 69.5818 5.66834 74.6452 10.2139C81.2365 16.108 85.4782 24.1837 86.5902 32.9559L86.5972 32.9359C86.5972 32.9439 86.5972 32.9519 86.5972 32.9589C86.5972 32.9659 86.5972 32.9759 86.5972 32.9839C86.5972 32.9919 86.5972 32.9999 86.5972 33.0079C86.5972 33.0159 86.5972 33.0239 86.5972 33.0319C86.6199 33.2119 86.6412 33.3925 86.6612 33.5739C86.6812 33.7552 86.6996 33.9375 86.7162 34.1209C86.7336 34.3029 86.7496 34.4849 86.7642 34.6669C86.7789 34.8489 86.7922 35.0322 86.8042 35.2169C87.1291 37.0932 87.8277 38.8851 88.8583 40.4862C89.889 42.0874 91.2309 43.4652 92.8042 44.5379C94.2959 45.554 95.971 46.2703 97.7362 46.6469C98.6278 46.8369 99.5357 46.9397 100.447 46.9539L86.7152 58.1329C85.9118 61.5905 84.1775 64.7624 81.7002 67.3049C79.3544 69.5509 76.507 71.2056 73.3942 72.1319C69.9118 73.1771 66.3184 73.8081 62.6882 74.0119C58.8182 74.3019 54.6972 74.3329 50.4722 74.3329C46.2472 74.3329 41.8842 74.3019 37.6522 74.0119C33.5872 73.7946 29.5548 73.1647 25.6172 72.1319C22.0929 71.2416 18.8047 69.5944 15.9812 67.3049C13.1926 64.912 11.226 61.7037 10.3592 58.1329Z" fill="white"/>
<path d="M50.5022 12C53.9235 11.9959 57.31 12.6824 60.4558 14.0177C64.3124 15.6733 67.7029 18.2401 70.3318 21.4945C72.9608 24.7489 74.7486 28.5922 75.5394 32.6896C76.3302 36.7871 76.1001 41.0144 74.8691 45.0033C73.6381 48.9923 71.4436 52.6218 68.4767 55.5759C66.1577 57.8874 63.411 59.7324 60.3873 61.0096C57.2581 62.3232 53.8953 63 50.4979 63C47.1005 63 43.7377 62.3232 40.6085 61.0096C36.7519 59.3663 33.3578 56.8127 30.7211 53.5707C28.0845 50.3286 26.2851 46.4962 25.4794 42.4066C24.6737 38.317 24.886 34.0938 26.0979 30.1042C27.3098 26.1146 29.4846 22.4792 32.4333 19.514C34.7535 17.1777 37.5086 15.3111 40.5455 14.0177C43.6924 12.682 47.0799 11.9955 50.5022 12Z" fill="#4AD118"/>
<path d="M42 37.952L47.107 43L58 32" stroke="white" stroke-width="5" stroke-linecap="round" stroke-linejoin="round"/>
</svg>
