<svg width="51" height="51" viewBox="0 0 51 51" fill="none" xmlns="http://www.w3.org/2000/svg">
<path d="M25.5022 2.19679e-05C28.9235 -0.00409611 32.31 0.682365 35.4558 2.01771C39.3124 3.6733 42.7029 6.24009 45.3318 9.49449C47.9608 12.7489 49.7486 16.5922 50.5394 20.6896C51.3302 24.7871 51.1001 29.0144 49.8691 33.0033C48.6381 36.9923 46.4436 40.6218 43.4767 43.5759C41.1577 45.8874 38.411 47.7324 35.3873 49.0096C32.2581 50.3232 28.8953 51 25.4979 51C22.1005 51 18.7377 50.3232 15.6085 49.0096C11.7519 47.3663 8.35775 44.8127 5.72112 41.5707C3.08449 38.3286 1.28513 34.4962 0.479412 30.4066C-0.326305 26.317 -0.113993 22.0938 1.09789 18.1042C2.30978 14.1146 4.48458 10.4792 7.43327 7.51397C9.75352 5.17771 12.5086 3.31107 15.5455 2.01771C18.6924 0.681991 22.0799 -0.00447664 25.5022 2.19679e-05Z" fill="#4AD118"/>
<path d="M17 25.952L22.107 31L33 20" stroke="white" stroke-width="5" stroke-linecap="round" stroke-linejoin="round"/>
</svg>
