<svg width="14" height="16" viewBox="0 0 14 16" fill="none" xmlns="http://www.w3.org/2000/svg">
<path d="M12.062 0.25H1.937C1.71538 0.25 1.49592 0.293669 1.29118 0.378511C1.08644 0.463353 0.900423 0.587706 0.743758 0.744464C0.587092 0.901223 0.462849 1.08731 0.378128 1.29211C0.293407 1.4969 0.249869 1.71638 0.25 1.938V15.25L7 11.313L13.75 15.25V1.938C13.7501 1.71629 13.7066 1.49673 13.6218 1.29188C13.537 1.08702 13.4127 0.900882 13.2559 0.74411C13.0991 0.587339 12.913 0.463007 12.7081 0.378224C12.5033 0.29344 12.2837 0.249869 12.062 0.25ZM12.062 12.312L7 9.359L1.937 12.312V2.148C1.937 2.09204 1.95923 2.03837 1.9988 1.9988C2.03837 1.95923 2.09204 1.937 2.148 1.937H11.848C11.904 1.937 11.9576 1.95923 11.9972 1.9988C12.0368 2.03837 12.059 2.09204 12.059 2.148L12.062 12.312Z" fill="#CBCBCB"/>
</svg>
